<?xml version="1.0" standalone="no"?>
<!DOCTYPE svg PUBLIC "-//W3C//DTD SVG 1.1//EN" "http://www.w3.org/Graphics/SVG/1.1/DTD/svg11.dtd">

<svg width="135" height="50" viewBox="0 0 135 50" 
  xmlns="http://www.w3.org/2000/svg"
  xmlns:xlink="http://www.w3.org/1999/xlink">


<polyline points="0.0, 7.403616431356233 0.7941176470588235, 7.582116822720876 1.588235294117647, 9.82773547977143 2.3823529411764706, 9.732411791022436 3.176470588235294, 6.306892749650414 3.9705882352941178, 7.630373032129264 4.764705882352941, 4.220776399231008 5.5588235294117645, 3.934813462893918 6.352941176470588, 3.0166137807687994 7.147058823529411, 5.771368285825012 7.9411764705882355, 7.674578816603478 8.73529411764706, 6.058059887484127 9.529411764705882, 10.020744902719096 10.323529411764707, 19.642171898281337 11.117647058823529, 23.3274843916596 11.911764705882353, 27.89775835196836 12.705882352941176, 33.003740703971644 13.5, 25.862192373197406 14.294117647058822, 22.274834167542352 15.088235294117649, 15.453423387192986 15.882352941176471, 10.314683795351169 16.676470588235293, 19.768863011095153 17.47058823529412, 16.03775893998706 18.26470588235294, 23.304411643825265 19.058823529411764, 18.898532756832658 19.85294117647059, 22.44641153144886 20.647058823529413, 16.875852987270104 21.441176470588236, 21.801093718356583 22.235294117647058, 23.088121213318026 23.029411764705884, 17.231572688673147 23.823529411764707, 19.819794778897325 24.61764705882353, 21.28388360797901 25.41176470588235, 35.94525519404131 26.205882352941178, 36.29225455327093 27.0, 31.492416292047654 27.794117647058822, 31.734298082837586 28.588235294117645, 25.89709767417947 29.38235294117647, 29.616783716986678 30.176470588235297, 23.60673242058004 30.970588235294116, 21.28358964369404 31.764705882352942, 20.481341463759946 32.55882352941177, 19.809170930962857 33.35294117647059, 20.89221437100828 34.14705882352941, 22.884349736451302 34.94117647058824, 24.94198867711583 35.73529411764706, 25.739451521154592 36.52941176470588, 24.709216774020938 37.32352941176471, 23.233866065003244 38.11764705882353, 19.61939866307623 38.91176470588235, 23.165947534343168 39.70588235294118, 26.66274459131326 40.5, 35.80177165081926 41.294117647058826, 35.38697850320794 42.088235294117645, 36.92375688496996 42.88235294117647, 38.036331089490275 43.6764705882353, 39.858643239447105 44.470588235294116, 39.64478294645547 45.264705882352935, 42.21539319893111 46.05882352941177, 40.854987046025244 46.85294117647059, 42.54009496847833 47.64705882352941, 42.94012686784571 48.44117647058824, 39.60075876099098 49.23529411764706, 40.36058056226276 50.029411764705884, 44.53545294527454 50.8235294117647, 46.26338250992968 51.61764705882353, 46.19899912250076 52.411764705882355, 46.58494742923947 53.205882352941174, 50.0 54.0, 47.9708213350253 54.794117647058826, 42.475888384303374 55.588235294117645, 39.07748468480973 56.38235294117647, 44.5538794266917 57.17647058823529, 46.77181272853444 57.970588235294116, 41.281183143222506 58.76470588235294, 41.0733346858289 59.55882352941176, 46.616752571381255 60.352941176470594, 47.11158450082951 61.14705882352941, 44.646975759887994 61.94117647058823, 42.78153210270022 62.73529411764706, 37.790820456796155 63.529411764705884, 39.14818671023493 64.3235294117647, 38.91744368219578 65.11764705882354, 36.97037702567243 65.91176470588235, 25.556884987738254 66.70588235294117, 23.69315469321568 67.5, 21.72540223276494 68.29411764705883, 6.25430234516854 69.08823529411764, 10.364592063130988 69.88235294117648, 9.140810470073681 70.6764705882353, 9.080606066853257 71.47058823529412, 9.142818872747991 72.26470588235294, 9.390984694208033 73.05882352941175, 6.819040233218019 73.8529411764706, 4.99685681853159 74.64705882352942, 7.064013346600662 75.44117647058823, 0.0 76.23529411764706, 3.7611600956285254 77.02941176470588, 6.154252064212524 77.8235294117647, 10.09538971815289 78.61764705882354, 9.283622963357335 79.41176470588236, 7.297738685048047 80.20588235294117, 9.969430750158283 81.0, 9.99526025373535 81.79411764705881, 12.189658680705088 82.58823529411765, 10.932525263032703 83.38235294117648, 8.765788986775739 84.17647058823529, 9.555690565831247 84.97058823529412, 13.207412847809918 85.76470588235294, 10.191353161375591 86.55882352941177, 10.526018766121856 87.3529411764706, 15.923195567885273 88.14705882352942, 12.41314428584876 88.94117647058823, 11.068429953714844 89.73529411764706, 12.316120676868618 90.52941176470587, 12.409811052288138 91.32352941176471, 13.303492782180761 92.11764705882354, 11.839410210116172 92.91176470588235, 8.388380041797316 93.70588235294117, 11.144699834581221 94.5, 9.824000745492096 95.29411764705883, 8.31588563687341 96.08823529411765, 10.872413275222664 96.88235294117648, 14.970586193281706 97.67647058823529, 20.845759560958978 98.47058823529412, 19.482059917637347 99.26470588235294, 17.159623708579144 100.05882352941177, 14.445108491905764 100.8529411764706, 12.82203684841567 101.6470588235294, 13.27581706897813 102.44117647058823, 9.029066935118097 103.23529411764706, 4.998511265971822 104.02941176470588, 7.301617170591 104.82352941176471, 5.014916514990367 105.61764705882352, 5.508585752270976 106.41176470588235, 7.801699860875511 107.20588235294117, 7.992044865655444 108.0, 7.198855770924408 108.79411764705883, 8.102374183074259 109.58823529411765, 7.360101330088208 110.38235294117646, 5.560623059870777 111.17647058823529, 4.448680626638792 111.97058823529413, 7.134636530169945 112.76470588235294, 6.435867741744788 113.55882352941177, 8.696534252576784 114.35294117647058, 9.086164868829949 115.1470588235294, 7.741123786357046 115.94117647058823, 9.592689617820817 116.73529411764706, 15.693030797448582 117.52941176470588, 13.917365623457753 118.32352941176471, 11.826938395259566 119.11764705882352, 11.520668516424779 119.91176470588235, 11.627469564842546 120.70588235294119, 10.80431945011569 121.5, 13.350877230094973 122.29411764705883, 11.553571802068106 123.08823529411764, 14.62245675987672 123.88235294117646, 16.67586809996808 124.6764705882353, 17.069849663128494 125.47058823529412, 16.141063393963062 126.26470588235294, 11.859212957898583 127.05882352941177, 12.799854899253138 127.85294117647058, 14.555419266829862 128.6470588235294, 15.533299003823158 129.44117647058823, 12.337189384463523 130.23529411764707, 13.291491652741552 131.02941176470588, 13.44791081273779 131.8235294117647, 16.39058148467806 132.61764705882354, 16.851903957235898 133.41176470588235, 23.582263883546663 134.2058823529412, 17.709672722087372" fill="none" stroke="#ed5565" stroke-width="1.25"/>

</svg>