<?xml version="1.0" standalone="no"?>
<!DOCTYPE svg PUBLIC "-//W3C//DTD SVG 1.1//EN" "http://www.w3.org/Graphics/SVG/1.1/DTD/svg11.dtd">

<svg width="135" height="50" viewBox="0 0 135 50" 
  xmlns="http://www.w3.org/2000/svg"
  xmlns:xlink="http://www.w3.org/1999/xlink">


<polyline points="0.0, 39.977492630774705 0.7941176470588235, 39.356242143604334 1.588235294117647, 27.52995895338089 2.3823529411764706, 22.16041124857293 3.176470588235294, 32.376750368589185 3.9705882352941178, 22.092149263720778 4.764705882352941, 32.246987587219955 5.5588235294117645, 29.753959067413344 6.352941176470588, 33.14775562817516 7.147058823529411, 35.93714062592664 7.9411764705882355, 38.44595865911983 8.73529411764706, 38.88132637820674 9.529411764705882, 27.90351335368856 10.323529411764707, 27.642409026466225 11.117647058823529, 32.164808998507006 11.911764705882353, 25.204558791701015 12.705882352941176, 30.493532240523454 13.5, 32.719801857529255 14.294117647058822, 30.36461264392915 15.088235294117649, 14.05709159838805 15.882352941176471, 9.727419430370727 16.676470588235293, 24.185816818555907 17.47058823529412, 24.50870369639075 18.26470588235294, 23.05836392014928 19.058823529411764, 18.18345215210936 19.85294117647059, 21.51192445410393 20.647058823529413, 20.61474989997282 21.441176470588236, 27.47596597126556 22.235294117647058, 35.30013527228293 23.029411764705884, 30.000749531426873 23.823529411764707, 17.166240961040813 24.61764705882353, 29.07950338046641 25.41176470588235, 30.21754706832803 26.205882352941178, 44.22928435440412 27.0, 32.40218738114225 27.794117647058822, 26.992904342593526 28.588235294117645, 27.68978049546358 29.38235294117647, 20.932245441523307 30.176470588235297, 30.84691173850339 30.970588235294116, 19.32743288096104 31.764705882352942, 15.671885386696625 32.55882352941177, 30.186293528218517 33.35294117647059, 27.41485396024506 34.14705882352941, 27.71038149798542 34.94117647058824, 44.65591639838109 35.73529411764706, 32.15322540635422 36.52941176470588, 12.58247786123132 37.32352941176471, 28.654363137113897 38.11764705882353, 25.585517516983924 38.91176470588235, 27.310050611239806 39.70588235294118, 42.46585285073836 40.5, 31.9422846531301 41.294117647058826, 34.96548618262072 42.088235294117645, 15.6272663057971 42.88235294117647, 30.120777991908827 43.6764705882353, 39.44199501697055 44.470588235294116, 26.674954020983847 45.264705882352935, 25.253412758495603 46.05882352941177, 23.843254802646882 46.85294117647059, 23.34307878619577 47.64705882352941, 32.262745391038244 48.44117647058824, 38.01427544999695 49.23529411764706, 21.07910698107914 50.029411764705884, 40.09716342630835 50.8235294117647, 31.267404297358443 51.61764705882353, 17.6384290611 52.411764705882355, 29.55917884569442 53.205882352941174, 14.493106513569884 54.0, 24.33771375998794 54.794117647058826, 23.93913651455501 55.588235294117645, 23.20564911241024 56.38235294117647, 43.17483303692665 57.17647058823529, 36.948006537082335 57.970588235294116, 2.716790629898258 58.76470588235294, 50.0 59.55882352941176, 32.75439281946825 60.352941176470594, 27.695948001941606 61.14705882352941, 26.234066246936205 61.94117647058823, 20.18221631505952 62.73529411764706, 28.349002893469095 63.529411764705884, 20.871120649262405 64.3235294117647, 34.555392341168364 65.11764705882354, 20.75486126499326 65.91176470588235, 26.32253493887655 66.70588235294117, 42.23060786540831 67.5, 28.461471370004222 68.29411764705883, 20.7256790371153 69.08823529411764, 0.0 69.88235294117648, 20.797085244421773 70.6764705882353, 22.056478542724854 71.47058823529412, 24.610616773796163 72.26470588235294, 25.309327169299213 73.05882352941175, 28.132239209142135 73.8529411764706, 28.792364207656462 74.64705882352942, 26.98787396514443 75.44117647058823, 25.385410569006744 76.23529411764706, 25.06683231092183 77.02941176470588, 21.376020759836827 77.8235294117647, 26.397449702417347 78.61764705882354, 26.73904722381235 79.41176470588236, 29.93584712143271 80.20588235294117, 28.127172394416416 81.0, 32.968044858646195 81.79411764705881, 21.59308370783353 82.58823529411765, 23.096845298134507 83.38235294117648, 33.701186985743476 84.17647058823529, 29.19826261564345 84.97058823529412, 28.800183315745194 85.76470588235294, 25.119353050331355 86.55882352941177, 23.636004528494585 87.3529411764706, 30.882497888478806 88.14705882352942, 31.021833211516164 88.94117647058823, 19.580647140365006 89.73529411764706, 29.602409749352848 90.52941176470587, 25.154621032535392 91.32352941176471, 31.560985282183683 92.11764705882354, 22.178372277681312 92.91176470588235, 23.11214321979666 93.70588235294117, 25.70621756630948 94.5, 27.430731929866326 95.29411764705883, 24.404077546313594 96.08823529411765, 17.25334121413199 96.88235294117648, 33.10075653302354 97.67647058823529, 26.461495547548314 98.47058823529412, 30.309014065440092 99.26470588235294, 27.295659100323377 100.05882352941177, 24.34321104873111 100.8529411764706, 22.932838808868354 101.6470588235294, 26.69093994634154 102.44117647058823, 22.375337647641825 103.23529411764706, 14.489669880540177 104.02941176470588, 25.05125957631289 104.82352941176471, 31.45255235101409 105.61764705882352, 22.708277290695122 106.41176470588235, 22.832974977965538 107.20588235294117, 30.261110332932184 108.0, 19.857531772563753 108.79411764705883, 21.8919198958602 109.58823529411765, 22.014029267568706 110.38235294117646, 22.196827648264843 111.17647058823529, 21.80657876623031 111.97058823529413, 21.00472514278106 112.76470588235294, 17.282167579983586 113.55882352941177, 22.509333048422768 114.35294117647058, 34.44712882477901 115.1470588235294, 32.171411219211876 115.94117647058823, 30.465841830780573 116.73529411764706, 32.37306529217362 117.52941176470588, 19.788901449071407 118.32352941176471, 20.33863071016292 119.11764705882352, 22.78314823392293 119.91176470588235, 22.14472137225062 120.70588235294119, 20.476942289667107 121.5, 25.689159697476192 122.29411764705883, 14.170603473306443 123.08823529411764, 16.799865142145194 123.88235294117646, 23.32575962308906 124.6764705882353, 18.115397958204387 125.47058823529412, 11.149300359735662 126.26470588235294, 26.792505389828804 127.05882352941177, 24.040065796405866 127.85294117647058, 22.85620659166094 128.6470588235294, 25.367808922556435 129.44117647058823, 20.389018255096143 130.23529411764707, 26.705987267341847 131.02941176470588, 25.45182370214975 131.8235294117647, 27.45947441922602 132.61764705882354, 27.45947441922602 133.41176470588235, 33.33487059723073 134.2058823529412, 24.83550986032401" fill="none" stroke="#57bd0f" stroke-width="1.25"/>

</svg>